<svg width="60" height="50" fill="none" xmlns="http://www.w3.org/2000/svg"><path d="M34.483 18.939a1.74 1.74 0 01-1.74-1.74V0h-6.089v17.199a1.74 1.74 0 01-1.74 1.74H0v6.089h24.914c.961 0 1.74.779 1.74 1.74v17.194h6.09V26.768c0-.961.778-1.74 1.74-1.74h24.914v-6.09H34.483z" fill="#0A477D"/><path d="M36.224 12.998L49.079.142A12.197 12.197 0 0047.217 0H36.224v12.998zm2.46 2.461h20.714V12.18c0-4.71-2.687-8.802-6.607-10.829L38.684 15.46zm-.006 13.049L52.752 42.63c3.942-2.02 6.646-6.125 6.646-10.85v-3.272h-20.72zm-15.504-15.51V0H12.181c-.633 0-1.255.048-1.862.142l12.855 12.856zm13.05 17.978v12.986h10.993c.616 0 1.222-.046 1.814-.135L36.224 30.976zM20.713 15.459L6.607 1.352C2.687 3.378 0 7.472 0 12.182v3.277h20.713zm0 13.049H0v3.273c0 4.71 2.688 8.804 6.61 10.83l14.104-14.103zm2.461 2.462L10.323 43.82c.606.093 1.226.142 1.858.142h1.808l4.237 5.375a1.74 1.74 0 002.733 0l2.215-2.81V30.969z" fill="#0A477D"/></svg>