<svg width="52" height="52" fill="none" xmlns="http://www.w3.org/2000/svg"><g filter="url(#filter0_i)"><path d="M38.871.028H13.13C5.903.028.024 5.908.024 13.133v25.742c0 7.227 5.879 13.105 13.106 13.105h25.74c7.227 0 13.105-5.878 13.105-13.105V13.133C51.975 5.907 46.097.028 38.87.028zm7.452 38.847c0 4.11-3.343 7.453-7.452 7.453H13.13c-4.109 0-7.452-3.344-7.452-7.453V13.133c0-4.108 3.343-7.45 7.452-7.45h25.74c4.109 0 7.452 3.342 7.452 7.45v25.742z" fill="#E5E5E5"/></g><g filter="url(#filter1_i)"><path d="M39.81 15.391a3.17 3.17 0 01-3.166-3.166A3.17 3.17 0 0139.81 9.06a3.169 3.169 0 013.166 3.165 3.17 3.17 0 01-3.166 3.166z" fill="#E5E5E5"/></g><g filter="url(#filter2_i)"><path d="M26 12.624c-7.378 0-13.38 6.002-13.38 13.38 0 7.378 6.002 13.38 13.38 13.38 7.377 0 13.38-6.002 13.38-13.38 0-7.377-6.003-13.38-13.38-13.38zm0 21.108c-4.26 0-7.727-3.467-7.727-7.728 0-4.259 3.468-7.725 7.726-7.725 4.26 0 7.726 3.466 7.726 7.725 0 4.26-3.465 7.728-7.726 7.728z" fill="#E5E5E5"/></g><defs><filter id="filter0_i" x=".024" y=".028" width="51.952" height="55.952" filterUnits="userSpaceOnUse" color-interpolation-filters="sRGB"><feFlood flood-opacity="0" result="BackgroundImageFix"/><feBlend in="SourceGraphic" in2="BackgroundImageFix" result="shape"/><feColorMatrix in="SourceAlpha" values="0 0 0 0 0 0 0 0 0 0 0 0 0 0 0 0 0 0 127 0" result="hardAlpha"/><feOffset dy="4"/><feGaussianBlur stdDeviation="2"/><feComposite in2="hardAlpha" operator="arithmetic" k2="-1" k3="1"/><feColorMatrix values="0 0 0 0 0 0 0 0 0 0 0 0 0 0 0 0 0 0 0.25 0"/><feBlend in2="shape" result="effect1_innerShadow"/></filter><filter id="filter1_i" x="36.644" y="9.06" width="6.333" height="10.331" filterUnits="userSpaceOnUse" color-interpolation-filters="sRGB"><feFlood flood-opacity="0" result="BackgroundImageFix"/><feBlend in="SourceGraphic" in2="BackgroundImageFix" result="shape"/><feColorMatrix in="SourceAlpha" values="0 0 0 0 0 0 0 0 0 0 0 0 0 0 0 0 0 0 127 0" result="hardAlpha"/><feOffset dy="4"/><feGaussianBlur stdDeviation="2"/><feComposite in2="hardAlpha" operator="arithmetic" k2="-1" k3="1"/><feColorMatrix values="0 0 0 0 0 0 0 0 0 0 0 0 0 0 0 0 0 0 0.25 0"/><feBlend in2="shape" result="effect1_innerShadow"/></filter><filter id="filter2_i" x="12.62" y="12.624" width="26.761" height="30.76" filterUnits="userSpaceOnUse" color-interpolation-filters="sRGB"><feFlood flood-opacity="0" result="BackgroundImageFix"/><feBlend in="SourceGraphic" in2="BackgroundImageFix" result="shape"/><feColorMatrix in="SourceAlpha" values="0 0 0 0 0 0 0 0 0 0 0 0 0 0 0 0 0 0 127 0" result="hardAlpha"/><feOffset dy="4"/><feGaussianBlur stdDeviation="2"/><feComposite in2="hardAlpha" operator="arithmetic" k2="-1" k3="1"/><feColorMatrix values="0 0 0 0 0 0 0 0 0 0 0 0 0 0 0 0 0 0 0.25 0"/><feBlend in2="shape" result="effect1_innerShadow"/></filter></defs></svg>