<svg width="73" height="50" fill="none" xmlns="http://www.w3.org/2000/svg"><path d="M66.25 43.75V23.125C66.25 10.373 55.873 0 43.118 0H29.382C16.627 0 6.25 10.374 6.25 23.125V43.75H0v2.5h12.5v2.5c0 .69.56 1.25 1.25 1.25H27.5c.691 0 1.25-.56 1.25-1.25v-2.5h15v2.5c0 .69.56 1.25 1.25 1.25h13.75c.691 0 1.25-.56 1.25-1.25v-2.5h12.5v-2.5h-6.25z" fill="#334F55"/><path d="M26.25 47.5h-2.5v-3.75h-2.5v3.75H20v-3.75h-2.5v3.75H15V45c0-1.379 1.124-2.5 2.507-2.5h6.236A2.506 2.506 0 0126.25 45v2.5zm31.25 0H55v-3.75h-2.5v3.75h-1.25v-3.75h-2.5v3.75h-2.5V45c0-1.379 1.124-2.5 2.508-2.5h6.235A2.506 2.506 0 0157.5 45v2.5z" fill="#62CEBB"/><path d="M59.822 43.75c-.56-2.15-2.503-3.75-4.83-3.75h-6.234c-2.327 0-4.27 1.6-4.83 3.75H28.572c-.56-2.15-2.503-3.75-4.83-3.75h-6.235c-2.326 0-4.27 1.6-4.83 3.75H8.75V23.125C8.75 11.752 18.005 2.5 29.382 2.5h13.736c11.377 0 20.632 9.252 20.632 20.625V43.75h-3.928z" fill="#D9D4D4"/><path d="M26.25 21.25c-4.136 0-7.5 3.364-7.5 7.5V30h2.5v-1.25c0-2.757 2.242-5 5-5a4.96 4.96 0 013.324 1.293A2.5 2.5 0 0027.5 27.5c0 1.379 1.122 2.5 2.5 2.5.457 0 .88-.133 1.25-.348V30h2.5v-1.25c0-4.136-3.364-7.5-7.5-7.5zm22.5 0c-4.136 0-7.5 3.364-7.5 7.5V30h2.5v-1.25c0-2.757 2.242-5 5-5a4.96 4.96 0 013.324 1.293A2.5 2.5 0 0050 27.5c0 1.379 1.122 2.5 2.5 2.5.457 0 .88-.133 1.25-.348V30h2.5v-1.25c0-4.136-3.364-7.5-7.5-7.5z" fill="#334F55"/></svg>