<svg width="80" height="80" fill="none" xmlns="http://www.w3.org/2000/svg"><rect x="1" y="1" width="78" height="78" rx="19" fill="#000" stroke="#fff" stroke-width="2"/><g clip-path="url(#clip0)"><path d="M48.27 55.616H31.73c-7.139 0-12.947 5.808-12.947 12.948v10.264c0 .647.525 1.172 1.172 1.172h40.09c.647 0 1.172-.525 1.172-1.172V68.564c0-7.14-5.808-12.948-12.947-12.948z" fill="#F0EEEE"/><path d="M48.27 55.616h-1.692c-.647 0-1.172.525-1.172 1.172v22.04c0 .647.525 1.172 1.172 1.172h13.467c.647 0 1.172-.525 1.172-1.172V68.564c0-7.14-5.808-12.948-12.947-12.948z" fill="#FB403F"/><path d="M48.27 55.616h-1.692c-.208 0-.403.055-.572.15 6.207.952 10.977 6.328 10.977 12.798v10.264c0 .647-.525 1.172-1.172 1.172h4.234c.647 0 1.172-.525 1.172-1.172V68.564c0-7.14-5.808-12.948-12.947-12.948z" fill="#C21C1C"/><path d="M33.422 55.616H31.73c-7.139 0-12.947 5.808-12.947 12.948v10.264c0 .647.525 1.172 1.172 1.172h13.467c.647 0 1.172-.525 1.172-1.172v-22.04c0-.647-.525-1.172-1.172-1.172z" fill="#FB403F"/><path d="M57.253 65.8l-5.874-9.724a3.003 3.003 0 00-2.677-1.623h-2.124c-.647 0-1.172.525-1.172 1.172V80h1.573v-.071a1.17 1.17 0 00.35-.201l7.53-6.282c.404-.338.534-.903.317-1.383l-1.501-3.32 3.024-1.254a1.172 1.172 0 00.554-1.689zM33.422 54.453h-2.124c-1.133 0-2.154.62-2.677 1.623L22.747 65.8a1.172 1.172 0 00.554 1.689l3.024 1.255-1.5 3.319a1.172 1.172 0 00.316 1.383l7.53 6.282c.106.088.225.155.35.2V80h1.573V55.625c0-.647-.525-1.172-1.172-1.172z" fill="#FF6464"/><path d="M46.578 41.833V56.73l-2.932 3.026a5.076 5.076 0 01-7.292 0l-2.932-3.026V41.833h13.156z" fill="#FA9E3E"/><path d="M48.804 61.666l1.106-2.51a2.557 2.557 0 00-.47-2.805 2.557 2.557 0 00-2.761-.684l-6.27 2.206a1.17 1.17 0 00-.41.25 1.167 1.167 0 00-.408-.25l-6.27-2.206a2.557 2.557 0 00-2.76.684 2.557 2.557 0 00-.47 2.805l1.105 2.51-1.106 2.51a2.557 2.557 0 00.47 2.806 2.557 2.557 0 002.761.683l6.27-2.205c.156-.054.293-.142.409-.25.116.108.252.196.408.25l6.27 2.206c.29.101.585.15.876.15.704 0 1.38-.29 1.885-.834.713-.77.893-1.845.47-2.805l-1.105-2.51z" fill="#2A434F"/><path d="M40 56.966a3.413 3.413 0 00-3.41 3.41v2.58c0 1.88 1.53 3.41 3.41 3.41 1.88 0 3.409-1.53 3.409-3.41v-2.58c0-1.88-1.53-3.41-3.41-3.41zm0 13.347a1.196 1.196 0 01-.65-.197 1.176 1.176 0 01-.325-1.625 1.161 1.161 0 01.325-.325 1.188 1.188 0 01.422-.174 1.178 1.178 0 011.31.7 1.209 1.209 0 01.09.449 1.147 1.147 0 01-.09.448 1.18 1.18 0 01-.634.635 1.216 1.216 0 01-.448.088zm0 5.039a1.21 1.21 0 01-.65-.197 1.16 1.16 0 01-.431-.527 1.148 1.148 0 010-.897 1.08 1.08 0 01.253-.38 1.155 1.155 0 01.598-.32 1.136 1.136 0 01.678.067 1.083 1.083 0 01.38.254 1.155 1.155 0 01.344.828 1.148 1.148 0 01-.09.448 1.18 1.18 0 01-.634.635 1.208 1.208 0 01-.448.089z" fill="#3D5868"/><path d="M48.283 5.032c-1.388-.207-5.237-2.905-7.546-4.771a1.172 1.172 0 00-1.908.858c-.016.367-.05 1.57.15 2.813-2.212-.71-5.056-1.755-6.578-3.524a1.172 1.172 0 00-2.01.421c-.51 1.67-.118 3.174.426 4.285-8.15.976-14.489 7.932-14.489 16.34v18.39c0 .647.525 1.172 1.172 1.172h5.397a1.172 1.172 0 001.144-1.426 16.37 16.37 0 01-.386-3.546v-7.352c3.102-.322 5.533-3.067 5.533-6.395a6.6 6.6 0 00-1.375-4.053c.405-.431.835-.84 1.289-1.223 2.462 1.542 6.516 2.476 10.898 2.476s8.436-.934 10.898-2.476c.454.383.885.792 1.29 1.223a6.6 6.6 0 00-1.375 4.053c0 3.328 2.43 6.073 5.532 6.395v7.352c0 1.2-.13 2.393-.386 3.546a1.172 1.172 0 001.144 1.426H62.5c.647 0 1.172-.525 1.172-1.172v-18.39c0-8.663-6.756-15.869-15.39-16.422z" fill="#D9D4D4"/><path d="M48.283 5.032c-1.388-.207-5.237-2.905-7.546-4.771a1.172 1.172 0 00-1.84.52c2.092 1.81 5.065 4.063 6.202 4.25 7.773.554 13.855 7.76 13.855 16.424v18.389c0 .647-.472 1.172-1.055 1.172h4.6c.648 0 1.173-.525 1.173-1.172v-18.39c0-8.663-6.756-15.869-15.39-16.422z" fill="#C6BEBE"/><path d="M19.662 34.998h7.714v8.846h-7.714a4.423 4.423 0 010-8.846zm40.676 0h-7.714v8.846h7.714a4.423 4.423 0 000-8.846z" fill="#FA9E3E"/><path d="M57.517 28.747v7.297c0 .151-.002.301-.006.451-.003.152-.01.3-.017.45-.007.149-.016.299-.029.447a14.058 14.058 0 01-.073.742 4.831 4.831 0 01-.052.394 6.805 6.805 0 01-.045.305 2.9 2.9 0 01-.028.167 8.159 8.159 0 01-.078.43 12.634 12.634 0 01-.095.456 10.874 10.874 0 01-.099.414 7.658 7.658 0 01-.08.306c-.028.105-.056.21-.087.314-.006.027-.014.052-.022.078-.03.099-.058.196-.089.293a15.923 15.923 0 01-.237.704l-.105.282c-.035.092-.07.184-.108.276-.031.08-.064.158-.097.238l-.062.148-.074.167a17.163 17.163 0 01-1.045 2.008l-.023.036a8.791 8.791 0 01-.179.286c-.015.028-.032.053-.05.08a18.64 18.64 0 01-.168.258l-.058.085c-.053.079-.106.155-.16.232l-.084.118a15.672 15.672 0 01-.784 1.018c-.077.093-.155.186-.233.276l-.006.006c-.088.102-.177.202-.267.302-.005.006-.011.01-.016.017l-.175.19a4.417 4.417 0 01-.142.15 4.131 4.131 0 01-.083.085l-.174.177a14.646 14.646 0 01-.584.558l-.064.057a8.07 8.07 0 01-.244.216l-.262.223a2.437 2.437 0 01-.142.12l-.668.52a16.23 16.23 0 01-.628.445l-.258.17a4.642 4.642 0 01-.218.14l-.28.173a16.531 16.531 0 01-.653.375l-.074.04c-.235.128-.475.25-.717.366l-.351.166-.111.048a11.78 11.78 0 01-.25.11l-.125.052a9.774 9.774 0 01-.335.136c-.114.046-.226.09-.342.132l-.95.32a8.541 8.541 0 01-.487.14l-.335.09-.264.064c-.062.015-.125.03-.189.043l-.365.079-.32.062-.479.08a6.734 6.734 0 01-.247.036l-.162.022a5.53 5.53 0 01-.232.028l-.176.02-.155.016c-.106.01-.214.02-.322.028l-.125.01a5.396 5.396 0 01-.275.016l-.13.008a8.6 8.6 0 01-.35.013L40 53.56a16.314 16.314 0 01-.706-.014c-.074-.003-.149-.006-.224-.011-7.954-.416-14.503-6.138-16.173-13.692a17.507 17.507 0 01-.414-3.8v-7.297c0-.411.015-.82.045-1.224a4.4 4.4 0 00.516.029c2.745 0 4.972-2.352 4.972-5.255 0-1.619-.693-3.066-1.782-4.03a16.447 16.447 0 012.824-2.71c2.044 1.645 6.176 2.768 10.942 2.768s8.898-1.123 10.942-2.767a16.443 16.443 0 012.824 2.71c-1.09.963-1.782 2.41-1.782 4.029 0 1.67.738 3.16 1.888 4.122a4.787 4.787 0 003.6 1.104c.03.404.045.813.045 1.224z" fill="#FFB56B"/><path d="M57.517 28.747v7.297c0 .151-.002.301-.006.451-.003.152-.01.3-.017.45-.007.149-.016.299-.029.447a14.031 14.031 0 01-.073.742 4.819 4.819 0 01-.052.394 6.783 6.783 0 01-.045.305 2.885 2.885 0 01-.028.167 8.195 8.195 0 01-.078.43 12.558 12.558 0 01-.095.456 10.874 10.874 0 01-.099.414 7.531 7.531 0 01-.08.306c-.028.105-.056.21-.087.314-.006.027-.014.052-.022.078-.03.099-.058.196-.089.293a10.31 10.31 0 01-.115.354 13.258 13.258 0 01-.227.632c-.035.092-.07.184-.108.276-.031.08-.064.158-.097.238l-.062.148-.074.167a17.163 17.163 0 01-1.045 2.008l-.023.036a8.749 8.749 0 01-.179.286c-.015.028-.032.053-.05.08l-.168.258-.058.085c-.053.079-.106.155-.16.232l-.084.118a17.545 17.545 0 01-1.017 1.294l-.006.007a16.32 16.32 0 01-.267.301l-.016.017-.175.19a4.414 4.414 0 01-.142.15l-.083.085-.174.177a14.34 14.34 0 01-.584.558l-.064.057a8.07 8.07 0 01-.244.216l-.262.223a2.435 2.435 0 01-.142.12l-.668.52c-.206.153-.415.301-.628.445l-.258.17a4.613 4.613 0 01-.218.14l-.28.173a17.071 17.071 0 01-.653.375l-.074.04a17.184 17.184 0 01-1.068.532l-.111.048c-.083.038-.166.073-.25.11l-.125.053c-.111.046-.222.092-.335.135-.114.046-.226.09-.342.132l-.95.32a8.54 8.54 0 01-.487.14l-.335.09-.264.064a6.97 6.97 0 01-.189.044l-.365.078-.32.062-.479.08a6.733 6.733 0 01-.247.036l-.162.022a5.53 5.53 0 01-.232.028l-.176.02a10.454 10.454 0 01-.476.044l-.126.01a5.283 5.283 0 01-.275.016l-.13.008a8.424 8.424 0 01-.35.013L40 53.56a15.807 15.807 0 01-.706-.014c-.074-.003-.149-.006-.224-.011 8.252-.462 14.802-7.302 14.802-15.67V26.419a4.787 4.787 0 003.6 1.105c.03.403.045.812.045 1.223z" fill="#EF9245"/><path d="M48.488 33.432a1.172 1.172 0 01-1.172-1.172v-.313a1.172 1.172 0 012.344 0v.313c0 .647-.525 1.172-1.172 1.172zm-16.976 0a1.172 1.172 0 01-1.172-1.172v-.313a1.172 1.172 0 012.344 0v.313c0 .647-.525 1.172-1.172 1.172z" fill="#19303F"/><path d="M48.382 45.091l-.006-.073a7.047 7.047 0 00-7.024-6.476h-2.703a7.047 7.047 0 00-7.024 6.476l-.006.073c-5.444-2.972-9.137-8.747-9.137-15.386v6.338c0 9.675 7.843 17.518 17.518 17.518s17.518-7.843 17.518-17.518v-6.338c0 6.639-3.693 12.414-9.136 15.386zM40 47.223c-1.8 0-3.536-.272-5.17-.776.622-2.144 2.321-3.659 4.297-3.659h1.746c1.976 0 3.675 1.515 4.297 3.66-1.634.503-3.37.775-5.17.775z" fill="#D9D4D4"/><path d="M32.684 36.819v10.51a5.694 5.694 0 01-5.687 5.685 5.693 5.693 0 01-5.686-5.686v-3.484h2.344v3.484c0 1.842 1.5 3.342 3.342 3.342 1.844 0 3.344-1.5 3.344-3.342v-10.51a1.171 1.171 0 112.343 0z" fill="#696970"/><path d="M31.512 37.99c-3.16 0-5.73-2.57-5.73-5.73 0-3.16 2.57-5.73 5.73-5.73 3.16 0 5.73 2.57 5.73 5.73 0 3.16-2.57 5.73-5.73 5.73zm0-9.117a3.39 3.39 0 00-3.387 3.387 3.391 3.391 0 003.387 3.387 3.391 3.391 0 003.387-3.387 3.391 3.391 0 00-3.387-3.387z" fill="#3D5868"/></g><defs><clipPath id="clip0"><path fill="#fff" d="M0 0h80v80H0z"/></clipPath></defs></svg>