<svg width="57" height="50" fill="none" xmlns="http://www.w3.org/2000/svg"><path d="M41.97 33.332c4.605 0 8.35-3.738 8.35-8.334V11.665c0-4.595-3.745-8.334-8.35-8.334-4.603 0-8.349 3.739-8.349 8.334V25c0 4.595 3.746 8.333 8.35 8.333z" fill="#0A477D"/><path d="M55.33 16.665c-.922 0-1.67.746-1.67 1.666v6.667c0 6.434-5.244 11.668-11.69 11.668-6.445 0-11.689-5.234-11.689-11.668v-6.667c0-.92-.747-1.666-1.67-1.666-.922 0-1.67.746-1.67 1.666v6.667c0 7.708 5.856 14.076 13.36 14.908v6.76h-5.01c-.922 0-1.67.747-1.67 1.667S34.37 50 35.291 50h13.36c.922 0 1.67-.746 1.67-1.667a1.67 1.67 0 00-1.67-1.667h-5.01v-6.76C51.145 39.074 57 32.706 57 24.998v-6.667c0-.92-.748-1.666-1.67-1.666zm-25.049-5.001c0-.92-.747-1.666-1.67-1.666h-2.419l-2.878-5.746c-.643-1.283-2.51-1.207-3.044.126l-4.987 12.443-5.238-15.684c-.505-1.514-2.662-1.518-3.168 0l-2.96 8.86H1.67c-.922 0-1.67.747-1.67 1.667s.748 1.667 1.67 1.667h3.45a1.67 1.67 0 001.584-1.14L8.46 6.934l5.095 15.258a1.67 1.67 0 003.135.092l5.3-13.222 1.677 3.348a1.67 1.67 0 001.493.921h3.451c.923 0 1.67-.746 1.67-1.667z" fill="#0A477D"/></svg>