<svg width="40" height="40" fill="none" xmlns="http://www.w3.org/2000/svg"><path d="M39.554 18.46c-2.084-3.408-4.886-6.146-8.405-8.214C27.63 8.177 23.914 7.143 20 7.143c-3.914 0-7.63 1.034-11.15 3.103-3.519 2.068-6.32 4.806-8.404 8.214C.15 18.98 0 19.494 0 20s.149 1.02.446 1.54c2.084 3.408 4.885 6.147 8.404 8.215 3.52 2.068 7.236 3.102 11.15 3.102 3.914 0 7.63-1.03 11.15-3.091 3.519-2.061 6.32-4.803 8.404-8.225.297-.521.446-1.034.446-1.54 0-.507-.149-1.02-.446-1.54zm-24.342-6.105c1.332-1.332 2.927-1.998 4.788-1.998.297 0 .55.105.759.313.208.208.313.461.313.759s-.105.55-.313.758A1.033 1.033 0 0120 12.5c-1.28 0-2.373.454-3.281 1.362-.908.908-1.362 2.002-1.362 3.281 0 .298-.104.55-.312.76a1.033 1.033 0 01-.76.312 1.03 1.03 0 01-.758-.313 1.033 1.033 0 01-.313-.759c0-1.86.666-3.456 1.998-4.788zM29.699 27.29C26.715 29.096 23.482 30 20 30s-6.715-.904-9.699-2.712C7.318 25.48 4.836 23.05 2.857 20c2.262-3.512 5.097-6.138 8.505-7.879A9.754 9.754 0 0010 17.143c0 2.753.979 5.108 2.935 7.065 1.957 1.957 4.312 2.935 7.065 2.935s5.108-.979 7.065-2.935C29.022 22.25 30 19.896 30 17.143c0-1.8-.454-3.475-1.362-5.022 3.408 1.74 6.243 4.368 8.504 7.88-1.978 3.05-4.46 5.48-7.443 7.288z" fill="#0A477D"/></svg>