<svg width="50" height="49" fill="none" xmlns="http://www.w3.org/2000/svg"><path d="M49.166 25.689c-2.686-8.641-11.21-14.538-21.427-14.713V.876A.898.898 0 0026.863 0a.942.942 0 00-.525.175l-25.98 18.8c-.41.291-.467.817-.176 1.226l.176.175 25.98 18.682c.409.292.934.175 1.226-.175a.942.942 0 00.175-.525V28.316c6.306 0 11.619 2.977 13.487 7.473 1.576 3.853.292 7.998-3.445 11.443-.35.35-.408.876-.058 1.226.175.175.409.292.642.292h.7a.67.67 0 00.468-.175c8.582-5.663 12.26-14.48 9.633-22.886z" fill="#62CEBB"/></svg>