<svg width="52" height="30" fill="none" xmlns="http://www.w3.org/2000/svg"><g filter="url(#filter0_i)"><path d="M9.877 20.52c2.006 2.718 4.31 5.121 7.288 6.822 3.372 1.927 7.002 2.508 10.83 2.33 1.79-.085 2.327-.552 2.41-2.334.055-1.22.196-2.439.797-3.536.591-1.076 1.488-1.28 2.522-.61.515.338.948.762 1.359 1.215 1.007 1.1 1.983 2.239 3.027 3.302 1.312 1.337 2.869 2.124 4.822 1.964l7.567.003c1.218-.083 1.85-1.575 1.152-2.939-.492-.952-1.139-1.798-1.822-2.62-1.546-1.857-3.368-3.44-5.091-5.12-1.553-1.517-1.652-2.397-.404-4.146 1.365-1.912 2.83-3.747 4.205-5.647 1.283-1.776 2.6-3.55 3.272-5.673.43-1.356.05-1.953-1.335-2.193-.24-.04-.489-.04-.732-.04l-8.234-.01c-1.014-.015-1.572.428-1.93 1.327-.486 1.215-.985 2.43-1.563 3.598-1.306 2.66-2.768 5.23-4.816 7.403-.453.479-.955 1.086-1.71.837-.942-.345-1.22-1.9-1.205-2.425l-.007-9.505c-.183-1.355-.486-1.962-1.834-2.226h-8.553c-1.138 0-1.713.444-2.324 1.156-.348.414-.456.68.266.818 1.418.268 2.223 1.188 2.433 2.61.338 2.275.315 4.559.118 6.84-.056.667-.17 1.33-.434 1.954-.413.981-1.083 1.179-1.96.575-.79-.545-1.348-1.313-1.897-2.084-2.051-2.9-3.686-6.024-5.022-9.308-.384-.949-1.05-1.523-2.055-1.54-2.47-.039-4.94-.045-7.413.003-1.484.027-1.927.75-1.32 2.098 2.689 5.985 5.683 11.802 9.593 17.1z" fill="#E5E5E5"/></g><defs><filter id="filter0_i" x=".021" y=".297" width="51.959" height="33.406" filterUnits="userSpaceOnUse" color-interpolation-filters="sRGB"><feFlood flood-opacity="0" result="BackgroundImageFix"/><feBlend in="SourceGraphic" in2="BackgroundImageFix" result="shape"/><feColorMatrix in="SourceAlpha" values="0 0 0 0 0 0 0 0 0 0 0 0 0 0 0 0 0 0 127 0" result="hardAlpha"/><feOffset dy="4"/><feGaussianBlur stdDeviation="2"/><feComposite in2="hardAlpha" operator="arithmetic" k2="-1" k3="1"/><feColorMatrix values="0 0 0 0 0 0 0 0 0 0 0 0 0 0 0 0 0 0 0.25 0"/><feBlend in2="shape" result="effect1_innerShadow"/></filter></defs></svg>