<svg width="52" height="38" fill="none" xmlns="http://www.w3.org/2000/svg"><g filter="url(#filter0_i)"><path d="M6.542 36.39c6.442.717 12.962.721 19.455.717 6.495.004 13.016 0 19.456-.718 2.72-.304 4.981-2.344 5.618-5.107.906-3.933.908-8.231.908-12.283 0-4.05.009-8.346-.898-12.28-.637-2.765-2.896-4.803-5.618-5.106C39.021.893 32.5.89 26.008.893c-6.493-.003-13.016 0-19.46.72-2.717.303-4.977 2.34-5.611 5.106C.03 10.653.02 14.949.02 19c0 4.052 0 8.349.906 12.282.633 2.763 2.894 4.803 5.615 5.107zM19.296 9.882L35.813 18.5l-16.517 8.566V9.883z" fill="#E5E5E5"/></g><defs><filter id="filter0_i" x=".021" y=".892" width="51.959" height="40.215" filterUnits="userSpaceOnUse" color-interpolation-filters="sRGB"><feFlood flood-opacity="0" result="BackgroundImageFix"/><feBlend in="SourceGraphic" in2="BackgroundImageFix" result="shape"/><feColorMatrix in="SourceAlpha" values="0 0 0 0 0 0 0 0 0 0 0 0 0 0 0 0 0 0 127 0" result="hardAlpha"/><feOffset dy="4"/><feGaussianBlur stdDeviation="2"/><feComposite in2="hardAlpha" operator="arithmetic" k2="-1" k3="1"/><feColorMatrix values="0 0 0 0 0 0 0 0 0 0 0 0 0 0 0 0 0 0 0.25 0"/><feBlend in2="shape" result="effect1_innerShadow"/></filter></defs></svg>